<svg width="27" height="15" viewBox="0 0 27 15" fill="none" xmlns="http://www.w3.org/2000/svg">
    <path fill-rule="evenodd" clip-rule="evenodd" d="M19.1337 0.233398C15.046 0.233398 11.7322 3.54717 11.7322 7.63492V14.9208H15.4329V7.40362C15.4329 5.35975 17.0898 3.70286 19.1337 3.70286C21.1776 3.70286 22.8345 5.35975 22.8345 7.40362V14.9208H26.5352V7.63492C26.5352 3.54717 23.2214 0.233398 19.1337 0.233398Z" fill="url(#paint0_linear_391_1711)"/>
    <path fill-rule="evenodd" clip-rule="evenodd" d="M8.0314 0.233398C3.94366 0.233398 0.629883 3.54717 0.629883 7.63492V14.9208H4.33064V7.40362C4.33064 5.35975 5.98753 3.70286 8.0314 3.70286C10.0753 3.70286 11.7322 5.35975 11.7322 7.40362V14.9208H15.4329V7.63492C15.4329 3.54717 12.1191 0.233398 8.0314 0.233398Z" fill="#2684FF"/>
    <defs>
        <linearGradient id="paint0_linear_391_1711" x1="10.3869" y1="14.5596" x2="18.3881" y2="2.01518" gradientUnits="userSpaceOnUse">
        <stop stop-color="#011D46"/>
        <stop offset="1" stop-color="#2684FF"/>
        </linearGradient>
    </defs>
</svg>
