<svg width="120" height="28" viewBox="0 0 120 28" fill="none" xmlns="http://www.w3.org/2000/svg">
<path d="M83.4724 6.71851L80.2714 16.6029C79.3568 19.4522 78.5126 23.7085 78.5126 23.7085H78.407C78.407 23.7085 77.5277 19.4522 76.6131 16.6029L73.5176 6.71851H68.2412L75.5578 27.8944H81.0804L88.5729 6.71851H83.4724Z" fill="black"/>
<path d="M104.613 24.3065V13.613C104.613 10.9045 103.628 8.96982 101.729 7.80902C100.392 6.9648 98.598 6.61304 96.2764 6.61304C90.4724 6.61304 87.7287 9.77886 87.5879 13.2261H92.1608C92.2663 11.2211 93.603 9.95475 96.3116 9.95475C99.0201 9.95475 99.9699 11.1507 99.9699 12.8743C99.9699 14.598 98.2814 15.2311 94.9397 15.6532C90.1206 16.2161 86.603 17.3417 86.603 21.9497C86.603 26.5578 89.5578 27.9648 93.5327 27.9648C97.5076 27.9648 98.598 26.6281 99.9347 24.8341H100.005C100.075 26.206 100.357 27.015 100.673 27.4723H105.352V27.1206C104.894 26.804 104.578 25.9246 104.578 24.2713L104.613 24.3065ZM100.075 20.1206C100.075 22.407 98.2462 24.6934 94.9397 24.6934C91.6332 24.6934 91.4221 24.0603 91.4221 21.8794C91.4221 19.6985 93.1457 19.0301 96.1005 18.4673C97.5779 18.1507 99.0905 17.7286 100.075 17.1306V20.1206Z" fill="black"/>
<path d="M117.769 6.71852C115.095 6.71852 113.09 8.09039 111.754 10.7989H111.648V7.03511H106.829V27.9999H111.824V17.4823C111.824 13.4371 114.286 11.1859 117.593 11.221C118.121 11.221 118.508 11.2562 118.965 11.3617H119.105V6.8944C118.754 6.7537 118.367 6.68335 117.769 6.68335V6.71852Z" fill="black"/>
<path d="M10.3417 14.9497C7.28142 14.3869 5.20605 14.0351 5.20605 12.2764C5.20605 10.5176 6.36684 9.84922 8.58292 9.84922C10.799 9.84922 12.2412 10.799 12.593 12.5226H17.1658C16.6734 9.005 14 6.61304 8.65328 6.61304C3.30655 6.61304 0.703518 8.79394 0.703518 12.5929C0.703518 16.3919 4.29147 18.01 8.05529 18.7839C11.2211 19.3819 13.2613 19.7688 13.2613 21.7738C13.2613 23.7789 12.0302 24.5176 9.39196 24.5176C6.75377 24.5176 4.99499 23.4975 4.60805 21.0703H0C0.316583 25.1507 3.62313 27.8944 9.3568 27.8944C15.0905 27.8944 17.9397 25.6784 17.9397 21.4573C17.9397 17.2362 14.1759 15.6532 10.3769 14.9497H10.3417Z" fill="black"/>
<path d="M36.407 24.3065V13.613C36.407 10.9045 35.4221 8.96982 33.5226 7.80902C32.1859 6.9648 30.3919 6.61304 28.0703 6.61304C22.2663 6.61304 19.5226 9.77886 19.3819 13.2261H23.9548C24.0603 11.2211 25.397 9.95475 28.1055 9.95475C30.814 9.95475 31.7638 11.1507 31.7638 12.8743C31.7638 14.598 30.0753 15.2311 26.7336 15.6532C21.9145 16.2161 18.397 17.3417 18.397 21.9497C18.397 26.5578 21.3517 27.9648 25.3266 27.9648C29.3015 27.9648 30.3919 26.6281 31.7286 24.8341H31.799C31.8693 26.206 32.1507 27.015 32.4673 27.4723H37.1457V27.1206C36.6884 26.804 36.3718 25.9246 36.3718 24.2713L36.407 24.3065ZM31.8693 20.1206C31.8693 22.407 30.0402 24.6934 26.7336 24.6934C23.4271 24.6934 23.2161 24.0603 23.2161 21.8794C23.2161 19.6985 24.9397 19.0301 27.8945 18.4673C29.3718 18.1507 30.8844 17.7286 31.8693 17.1306V20.1206Z" fill="black"/>
<path d="M45.0952 2.28626L40.3113 0.738525V2.04003V7.28124H37.1455V10.6229H40.3113V23.1807C40.3113 26.8039 42.5626 27.9998 45.8691 27.9998C49.1757 27.9998 48.2963 27.8591 49.1053 27.6833V23.8843H48.8591C48.4721 23.9546 47.7686 24.025 47.2762 24.025C45.9043 24.025 45.0952 23.6028 45.0952 22.0903V10.5878H49.2108V7.24606H45.0952V2.25109V2.28626Z" fill="black"/>
<path d="M61.6282 7.38694C58.8142 7.38694 56.7739 8.65327 55.4021 10.799H55.2966C55.3317 9.63819 55.3669 8.09045 55.3669 7.52764V0H50.583V27.9648H55.3669V16.2161C55.3669 13.3668 57.2664 11.3266 59.9398 11.3266C62.6131 11.3266 63.774 12.804 63.774 15.1608V27.9648H68.5579V14.3518C68.5579 10.0251 65.9549 7.35176 61.6282 7.35176V7.38694Z" fill="black"/>
<path d="M40.3113 7.28174L45.0952 10.6234H40.3113H37.1455V7.28174H40.3113Z" fill="url(#paint0_linear_169969_2750)"/>
<defs>
<linearGradient id="paint0_linear_169969_2750" x1="37.0048" y1="10.0255" x2="44.4269" y2="8.09079" gradientUnits="userSpaceOnUse">
<stop stop-color="#DEAC1A"/>
<stop offset="0.2" stop-color="#D3AB33"/>
<stop offset="0.3" stop-color="#F8BD1C"/>
<stop offset="0.4" stop-color="#F8BD1C"/>
<stop offset="0.6" stop-color="#FAC849"/>
<stop offset="0.7" stop-color="#FFF77C"/>
<stop offset="0.8" stop-color="#FFF77C"/>
<stop offset="0.9" stop-color="#FFF77C"/>
<stop offset="1" stop-color="#F8C122"/>
</linearGradient>
</defs>
</svg>
